<svg xmlns="http://www.w3.org/2000/svg" width="430" height="430" style="width:100%;height:100%;transform:translate3d(0,0,0);content-visibility:visible" viewBox="0 0 430 430"><defs><clipPath id="g"><path d="M0 0h430v430H0z"/></clipPath><clipPath id="n"><path d="M0 0h430v430H0z"/></clipPath><clipPath id="d"><path d="M0 0h430v430H0z"/></clipPath><clipPath id="k"><path d="M0 0h430v430H0z"/></clipPath><clipPath id="e"><path d="M0 0h430v430H0z"/></clipPath><clipPath id="h"><path d="M0 0h430v430H0z"/></clipPath><clipPath id="f"><path d="M0 0h430v430H0z"/></clipPath><filter id="o" width="300%" height="300%" x="-100%" y="-100%"><feGaussianBlur result="filter_result_0"/></filter><filter id="m" width="300%" height="300%" x="-100%" y="-100%"><feGaussianBlur result="filter_result_0" stdDeviation="52.5 52.5"/></filter><filter id="i" width="300%" height="300%" x="-100%" y="-100%"><feGaussianBlur result="filter_result_0"/></filter><mask id="p" mask-type="alpha"><use xmlns:ns1="http://www.w3.org/1999/xlink" ns1:href="#a"/></mask><mask id="l" mask-type="alpha"><use xmlns:ns2="http://www.w3.org/1999/xlink" ns2:href="#b"/></mask><mask id="j" mask-type="alpha"><use xmlns:ns3="http://www.w3.org/1999/xlink" ns3:href="#c"/></mask><g id="a" clip-path="url(#d)" style="display:none"><path fill-opacity="0" stroke-linecap="round" stroke-linejoin="round" class="secondary" style="display:none"/><g style="display:none"><path/><path fill-opacity="0" class="secondary"/></g><g style="display:none"><path/><path fill-opacity="0" class="secondary"/></g><g style="display:none"><path/><path fill-opacity="0" class="secondary"/></g><g style="display:none"><path/><path fill-opacity="0" class="secondary"/></g><g style="display:none"><path/><path fill-opacity="0" class="secondary"/></g><g style="display:none"><path/><path fill-opacity="0" class="secondary"/></g><g style="display:none"><path/><path fill-opacity="0" class="secondary"/></g><g style="display:none"><path/><path fill-opacity="0" class="secondary"/></g><g fill-opacity="0" stroke-linecap="round" stroke-linejoin="round" style="display:none"><path class="primary"/><path class="primary"/></g><g fill-opacity="0" stroke-linecap="round" stroke-linejoin="round" style="display:none"><path class="secondary"/><path class="secondary"/><path class="secondary"/></g></g><g id="b" clip-path="url(#e)" style="display:block"><path fill-opacity="0" stroke="#08A88A" stroke-linecap="round" stroke-linejoin="round" stroke-width="12" d="M280 380h-35v-48.301M150 50h35v48.301M150 380h35v-48.301M280 50h-35v48.301M50 280v-35h48.301M380 150v35h-48.301M50 150v35h48.301M380 280v-35h-48.301" class="secondary" style="display:block"/><path fill-opacity="0" stroke-linecap="round" stroke-linejoin="round" class="primary" style="display:none"/><g style="display:block"><path fill="red" d="M150 50c0 8.28-6.72 15-15 15-8.28 0-15-6.72-15-15 0-8.28 6.72-15 15-15 8.28 0 15 6.72 15 15z"/><path fill-opacity="0" stroke="#08A88A" stroke-width="7" d="M150 50c0 8.278-6.722 15-15 15-8.278 0-15-6.722-15-15 0-8.278 6.722-15 15-15 8.278 0 15 6.722 15 15z" class="secondary"/></g><g style="display:block"><path fill="red" d="M280 380c0-8.28 6.72-15 15-15 8.28 0 15 6.72 15 15 0 8.28-6.72 15-15 15-8.28 0-15-6.72-15-15z"/><path fill-opacity="0" stroke="#08A88A" stroke-width="7" d="M280 380c0-8.278 6.722-15 15-15 8.278 0 15 6.722 15 15 0 8.278-6.722 15-15 15-8.278 0-15-6.722-15-15z" class="secondary"/></g><g style="display:block"><path fill="red" d="M310 50c0 8.28-6.72 15-15 15-8.28 0-15-6.72-15-15 0-8.28 6.72-15 15-15 8.28 0 15 6.72 15 15z"/><path fill-opacity="0" stroke="#08A88A" stroke-width="7" d="M310 50c0 8.278-6.722 15-15 15-8.278 0-15-6.722-15-15 0-8.278 6.722-15 15-15 8.278 0 15 6.722 15 15z" class="secondary"/></g><g style="display:block"><path fill="red" d="M120 380c0-8.28 6.72-15 15-15 8.28 0 15 6.72 15 15 0 8.28-6.72 15-15 15-8.28 0-15-6.72-15-15z"/><path fill-opacity="0" stroke="#08A88A" stroke-width="7" d="M120 380c0-8.278 6.722-15 15-15 8.278 0 15 6.722 15 15 0 8.278-6.722 15-15 15-8.278 0-15-6.722-15-15z" class="secondary"/></g><g style="display:block"><path fill="red" d="M365 135c0 8.28 6.72 15 15 15 8.28 0 15-6.72 15-15 0-8.28-6.72-15-15-15-8.28 0-15 6.72-15 15z"/><path fill-opacity="0" stroke="#08A88A" stroke-width="7" d="M365 135c0 8.278 6.722 15 15 15 8.278 0 15-6.722 15-15 0-8.278-6.722-15-15-15-8.278 0-15 6.722-15 15z" class="secondary"/></g><g style="display:block"><path fill="red" d="M65 295c0 8.28-6.72 15-15 15-8.28 0-15-6.72-15-15 0-8.28 6.72-15 15-15 8.28 0 15 6.72 15 15z"/><path fill-opacity="0" stroke="#08A88A" stroke-width="7" d="M65 295c0 8.278-6.722 15-15 15-8.278 0-15-6.722-15-15 0-8.278 6.722-15 15-15 8.278 0 15 6.722 15 15z" class="secondary"/></g><g style="display:block"><path fill="red" d="M365 295c0 8.28 6.72 15 15 15 8.28 0 15-6.72 15-15 0-8.28-6.72-15-15-15-8.28 0-15 6.72-15 15z"/><path fill-opacity="0" stroke="#08A88A" stroke-width="7" d="M365 295c0 8.278 6.722 15 15 15 8.278 0 15-6.722 15-15 0-8.278-6.722-15-15-15-8.278 0-15 6.722-15 15z" class="secondary"/></g><g style="display:block"><path fill="red" d="M65 135c0 8.28-6.72 15-15 15-8.28 0-15-6.72-15-15 0-8.28 6.72-15 15-15 8.28 0 15 6.72 15 15z"/><path fill-opacity="0" stroke="#08A88A" stroke-width="7" d="M65 135c0 8.278-6.722 15-15 15-8.278 0-15-6.722-15-15 0-8.278 6.722-15 15-15 8.278 0 15 6.722 15 15z" class="secondary"/></g><path fill-opacity="0" stroke="#121331" stroke-dasharray="0" stroke-dashoffset="22" stroke-linecap="round" stroke-linejoin="round" stroke-width="12" d="M115-95c0-11.046-8.954-20-20-20H-95c-11.046 0-20 8.954-20 20V95c0 11.046 8.954 20 20 20H95c11.046 0 20-8.954 20-20V-95z" class="primary" style="display:block" transform="translate(215 215.338)"/><path fill-opacity="0" stroke="#08A88A" stroke-linecap="round" stroke-linejoin="round" stroke-width="12" d="M262 175v80m-40.185-19.784h-58.633m66.806 19.751L196.901 175h-8.816l-33.102 80.044" class="secondary" style="display:block"/></g><g id="c" clip-path="url(#f)" style="display:none"><path fill-opacity="0" stroke-linecap="round" stroke-linejoin="round" class="secondary" style="display:none"/><path fill-opacity="0" stroke-linecap="round" stroke-linejoin="round" class="primary" style="display:none"/><g style="display:none"><path/><path fill-opacity="0" class="secondary"/></g><g style="display:none"><path/><path fill-opacity="0" class="secondary"/></g><g style="display:none"><path/><path fill-opacity="0" class="secondary"/></g><g style="display:none"><path/><path fill-opacity="0" class="secondary"/></g><g style="display:none"><path/><path fill-opacity="0" class="secondary"/></g><g style="display:none"><path/><path fill-opacity="0" class="secondary"/></g><g style="display:none"><path/><path fill-opacity="0" class="secondary"/></g><g style="display:none"><path/><path fill-opacity="0" class="secondary"/></g><path fill-opacity="0" stroke-linecap="round" stroke-linejoin="round" class="primary" style="display:none"/><g fill-opacity="0" stroke-linecap="round" stroke-linejoin="round" style="display:none"><path class="secondary"/><path class="secondary"/><path class="secondary"/><path class="secondary"/><path class="secondary"/><path class="secondary"/></g></g></defs><g clip-path="url(#g)"><g clip-path="url(#h)" filter="url(#i)" mask="url(#j)" style="display:none"><g class="design"><path class="primary"/></g><g class="design"><path class="secondary"/></g></g><g clip-path="url(#k)" mask="url(#l)" style="display:block"><g filter="url(#m)" transform="rotate(-94 238.762 -16.565) scale(2.4)"><g class="design"><path fill="#4BE1EC" d="M0-250c137.975 0 250 112.025 250 250S137.975 250 0 250-250 137.975-250 0-137.975-250 0-250z" class="primary"/></g><g class="design"><path fill="#CB5EEE" d="M113.242-295.384c97.478 0 176.5 79.022 176.5 176.5s-79.022 176.5-176.5 176.5c-43.948 0-74.396-34.057-105.29-60.631-37.631-32.369-71.21-62.338-71.21-115.869 0-97.478 79.022-176.5 176.5-176.5z" class="secondary"/></g></g></g><g clip-path="url(#n)" filter="url(#o)" mask="url(#p)" style="display:none"><g class="design"><path class="primary"/></g><g class="design"><path class="secondary"/></g></g></g></svg>